<?xml version="1.0" encoding="UTF-8" standalone="no"?>
<!-- Generator: Fusion 360, Shaper Origin Export Add-In, Version 1.9.0  -->

<svg
   shaper:fusionaddin="version:1.9.0"
   width="12.7cm"
   height="12.7cm"
   version="1.1"
   x="0cm"
   y="0cm"
   viewBox="0 0 12.7 12.7"
   enable-background="new 0 0 12.7 12.7"
   xml:space="preserve"
   id="svg22"
   sodipodi:docname="Artifact green.svg"
   inkscape:version="1.4.3 (0d15f75, 2025-12-25)"
   inkscape:export-filename="Artifact green.png"
   inkscape:export-xdpi="60"
   inkscape:export-ydpi="60"
   xmlns:inkscape="http://www.inkscape.org/namespaces/inkscape"
   xmlns:sodipodi="http://sodipodi.sourceforge.net/DTD/sodipodi-0.dtd"
   xmlns="http://www.w3.org/2000/svg"
   xmlns:svg="http://www.w3.org/2000/svg"
   xmlns:shaper="http://www.shapertools.com/namespaces/shaper"><defs
     id="defs22" /><sodipodi:namedview
     id="namedview22"
     pagecolor="#ffffff"
     bordercolor="#000000"
     borderopacity="0.25"
     inkscape:showpageshadow="2"
     inkscape:pageopacity="0.0"
     inkscape:pagecheckerboard="0"
     inkscape:deskcolor="#d1d1d1"
     inkscape:document-units="cm"
     inkscape:zoom="2.53125"
     inkscape:cx="240.19753"
     inkscape:cy="240"
     inkscape:window-width="933"
     inkscape:window-height="1211"
     inkscape:window-x="791"
     inkscape:window-y="148"
     inkscape:window-maximized="0"
     inkscape:current-layer="svg22" /><path
     id="path2"
     style="fill:#04be4e;fill-opacity:1;stroke:none;stroke-opacity:1"
     d="M -7.3937176 4.5391939 A 6.35 6.35 0 0 1 -13.310359 -1.7960266 A 6.35 6.35 0 0 1 -0.610359 -1.7960266 A 6.35 6.35 0 0 1 -7.3937176 4.5391939 z M -5.7765036 4.1156022 L -5.7406402 4.1150855 L -5.7032781 4.1134835 L -5.6644174 4.1108997 L -5.6242648 4.1072823 L -5.5828203 4.1025798 L -5.5401356 4.0968954 L -5.4963657 4.0902291 L -5.4516139 4.082581 L -5.4059319 4.073951 L -5.3593715 4.0643392 L -5.3120875 4.0537972 L -5.2641835 4.042325 L -5.215711 4.0300261 L -5.1668251 4.0167969 L -5.1175774 4.0027409 L -5.0680714 3.9879098 L -5.0184104 3.9722518 L -4.9687493 3.9558704 L -4.9191399 3.9387655 L -4.8696856 3.9209888 L -4.8204896 3.902592 L -4.7716554 3.8835234 L -4.7232862 3.863938 L -4.6754855 3.8438359 L -4.628305 3.823217 L -4.5819512 3.802133 L -4.5363726 3.7806873 L -4.4917758 3.7588798 L -4.4482126 3.7367623 L -4.4057862 3.7143864 L -4.3645485 3.6917521 L -4.3246026 3.6689628 L -4.286052 3.6460702 L -4.2489483 3.6230741 L -4.2133432 3.6000265 L -4.1793918 3.5769788 L -4.147094 3.5540344 L -4.1165016 3.5311935 L -4.0877695 3.5084558 L -4.0608461 3.4859766 L -4.0358863 3.463704 L -4.0128387 3.4417415 L -3.991858 3.4200891 L -3.9728928 3.3988501 L -3.9560463 3.3780245 L -3.9413185 3.357664 L -3.9287094 3.3378202 L -3.9183741 3.3184933 L -3.9101576 3.2997864 L -3.9042148 3.281648 L -3.9004941 3.264233 L -3.8989955 3.2474898 L -3.8997706 3.2314701 L -3.9027679 3.2162256 L -3.9080389 3.2018079 L -3.9154803 3.1881653 L -3.9251954 3.1754012 L -3.937081 3.1635156 L -3.9510853 3.1525602 L -3.9673117 3.1424833 L -3.9856052 3.1333883 L -4.0059657 3.1252751 L -4.0283416 3.1180921 L -4.0526812 3.1119426 L -4.0789845 3.1067749 L -4.1071481 3.1026408 L -4.1371722 3.0995402 L -4.1689015 3.0974732 L -4.2023878 3.0964396 L -4.2374244 3.0964396 L -4.274063 3.0974732 L -4.3121486 3.0995919 L -4.351681 3.1026925 L -4.3925054 3.1068266 L -4.43457 3.1119942 L -4.4777715 3.1181954 L -4.5220582 3.1253784 L -4.5673268 3.1335433 L -4.6134738 3.1426384 L -4.660396 3.1527153 L -4.70799 3.1637223 L -4.7562041 3.1756079 L -4.8048833 3.188372 L -4.8539759 3.2020146 L -4.9033786 3.216484 L -4.9529363 3.2317285 L -5.0025974 3.2477482 L -5.0522584 3.2644914 L -5.1018161 3.2819063 L -5.1511671 3.3000448 L -5.2001564 3.3187516 L -5.2487839 3.3380786 L -5.2968946 3.3579741 L -5.3443853 3.3783346 L -5.3911525 3.3991602 L -5.4371445 3.4203992 L -5.482258 3.4420516 L -5.526338 3.4640141 L -5.5693328 3.4862866 L -5.6111907 3.5088176 L -5.6518084 3.5315035 L -5.6910308 3.5543962 L -5.7289096 3.5773405 L -5.7652382 3.6003365 L -5.8000164 3.6233842 L -5.8331927 3.6463802 L -5.8646119 3.6693246 L -5.8942742 3.6921139 L -5.9221278 3.7146965 L -5.9480694 3.7370724 L -5.9720989 3.7591899 L -5.9941131 3.7809973 L -6.0141118 3.802443 L -6.0319919 3.823527 L -6.0478049 3.8440942 L -6.0614475 3.8642481 L -6.0729196 3.8838334 L -6.0822214 3.9028504 L -6.0893011 3.9212472 L -6.094107 3.9390239 L -6.0967425 3.9561288 L -6.0971042 3.9725102 L -6.0951922 3.9881165 L -6.0910581 4.0029476 L -6.0847019 4.0170036 L -6.0761236 4.0301811 L -6.0653232 4.0425317 L -6.0523524 4.0539522 L -6.0372629 4.0644942 L -6.020003 4.0740544 L -6.000676 4.0826843 L -5.9793336 4.0903324 L -5.9559242 4.0969987 L -5.9306027 4.1026831 L -5.9033693 4.107334 L -5.8742754 4.1109513 L -5.8433729 4.1135352 L -5.8107651 4.1150855 L -5.7765036 4.1156022 z M -8.579795 3.9918372 L -8.5496677 3.9913721 L -8.5212456 3.9897701 L -8.4945806 3.9869796 L -8.4697759 3.9829488 L -8.4468316 3.9778329 L -8.4258509 3.9715283 L -8.406834 3.9640352 L -8.3898325 3.955457 L -8.3748463 3.9457935 L -8.3619789 3.9349931 L -8.3511785 3.9231075 L -8.3425485 3.9102401 L -8.3360373 3.8962874 L -8.3316965 3.8814046 L -8.3295261 3.8654883 L -8.3295261 3.8486935 L -8.3316965 3.8310201 L -8.3359856 3.8124683 L -8.3424969 3.7930896 L -8.3511268 3.7729358 L -8.3619272 3.7520585 L -8.3747946 3.7304578 L -8.3897291 3.7082369 L -8.4067307 3.6853442 L -8.4257476 3.6619348 L -8.4467282 3.6380603 L -8.4696726 3.613669 L -8.4944772 3.5888644 L -8.5210906 3.5636979 L -8.5495126 3.5382214 L -8.57964 3.5124866 L -8.6114727 3.486545 L -8.6448557 3.4605001 L -8.6797889 3.4343001 L -8.7161691 3.4080485 L -8.7539446 3.3817969 L -8.793012 3.3556486 L -8.8333196 3.3296037 L -8.8747641 3.3037138 L -8.9172421 3.2780306 L -8.960702 3.2526575 L -9.0050921 3.2275427 L -9.0502056 3.2028414 L -9.0960426 3.1786052 L -9.1424997 3.1547823 L -9.1894736 3.1315279 L -9.2368092 3.108842 L -9.2845065 3.0867245 L -9.3324106 3.0653304 L -9.3804697 3.0446082 L -9.4285288 3.0246094 L -9.4765362 3.0054374 L -9.5243369 2.9870923 L -9.5718792 2.9696257 L -9.6190598 2.9530375 L -9.6657753 2.9374312 L -9.7119223 2.9227551 L -9.7574493 2.9090609 L -9.802201 2.8964002 L -9.846126 2.8848246 L -9.8891208 2.8742826 L -9.9310821 2.8648775 L -9.9720098 2.8565576 L -10.011697 2.8493746 L -10.050145 2.8433801 L -10.087197 2.8384709 L -10.122905 2.8348019 L -10.157063 2.8322697 L -10.189671 2.8309261 L -10.220677 2.8307711 L -10.249977 2.8318046 L -10.277521 2.8340267 L -10.303256 2.8374373 L -10.32713 2.8419849 L -10.349093 2.847721 L -10.369143 2.8546456 L -10.387127 2.8626554 L -10.403146 2.8718022 L -10.417047 2.8820341 L -10.428881 2.8933512 L -10.438596 2.9057536 L -10.446193 2.9191378 L -10.451619 2.9336072 L -10.454874 2.9490068 L -10.45596 2.9653365 L -10.454874 2.9825964 L -10.451619 3.0006832 L -10.446244 3.0197001 L -10.438648 3.0394405 L -10.428933 3.0599561 L -10.417151 3.0811951 L -10.403198 3.1031576 L -10.38723 3.1256885 L -10.369247 3.1488395 L -10.349196 3.1725073 L -10.327234 3.1966402 L -10.303411 3.2212382 L -10.277676 3.2461979 L -10.250132 3.2715194 L -10.220832 3.2971509 L -10.189826 3.3229891 L -10.157218 3.3489824 L -10.12306 3.3751306 L -10.087403 3.4013823 L -10.0503 3.4276339 L -10.011904 3.4538338 L -9.9721648 3.4799304 L -9.9312888 3.5059237 L -9.8893275 3.5317102 L -9.8463327 3.5572384 L -9.8024077 3.5825081 L -9.757656 3.6073645 L -9.7121807 3.6318591 L -9.665982 3.6559404 L -9.6192665 3.6794531 L -9.5721376 3.7024491 L -9.5245436 3.7248767 L -9.4767429 3.7466325 L -9.4287871 3.7676648 L -9.3807281 3.7880253 L -9.332669 3.8076107 L -9.2847649 3.8263692 L -9.2370676 3.844301 L -9.1896803 3.8613025 L -9.1427581 3.8774255 L -9.096301 3.8926184 L -9.050464 3.9067778 L -9.0052988 3.9199553 L -8.9609604 3.9320475 L -8.9174488 3.9431063 L -8.8749708 3.9530798 L -8.8335263 3.9619682 L -8.7932187 3.9697197 L -8.7541513 3.9763342 L -8.7163758 3.9817603 L -8.6799956 3.9860494 L -8.6450624 3.98915 L -8.6116277 3.9911137 L -8.579795 3.9918372 z M -5.8837839 2.5395227 L -5.8318491 2.5388509 L -5.7795525 2.535957 L -5.7271009 2.5309961 L -5.674546 2.5238648 L -5.6220428 2.5146147 L -5.5697979 2.5033492 L -5.5178114 2.489965 L -5.46629 2.4745654 L -5.4153887 2.4572022 L -5.3651592 2.4378235 L -5.3158082 2.4165845 L -5.2673874 2.3934851 L -5.2200001 2.3685771 L -5.1738531 2.3420154 L -5.1289979 2.3137484 L -5.085538 2.2838794 L -5.0436284 2.2525118 L -5.0033208 2.2196973 L -4.9647185 2.1855392 L -4.9279249 2.1501925 L -4.8929916 2.1136572 L -4.8600738 2.0760368 L -4.8292229 2.0374345 L -4.8004908 1.9979537 L -4.7738775 1.9577494 L -4.7495379 1.9168734 L -4.7274204 1.8754289 L -4.70768 1.833571 L -4.6986883 1.812487 L -4.6903167 1.7912997 L -4.6825135 1.7701123 L -4.6753305 1.7488216 L -4.6687159 1.7275309 L -4.6627215 1.7061886 L -4.6573471 1.6848979 L -4.6525412 1.6635555 L -4.6483554 1.6422131 L -4.6447897 1.6209225 L -4.6418442 1.5996834 L -4.6394671 1.5784444 L -4.6377618 1.5573088 L -4.6366249 1.5362248 L -4.6361081 1.5152442 L -4.6361598 1.4943669 L -4.6368833 1.4735413 L -4.6381752 1.4528707 L -4.6400872 1.4323035 L -4.6425677 1.4118913 L -4.6456682 1.3916341 L -4.6493373 1.371532 L -4.6535747 1.3515332 L -4.658484 1.3317411 L -4.66391 1.3121558 L -4.6699562 1.2927771 L -4.6777593 1.2740186 L -4.6861826 1.2554667 L -4.6951226 1.2371733 L -4.7046827 1.2191382 L -4.7147596 1.2013098 L -4.725405 1.1837915 L -4.7366188 1.1665316 L -4.7483493 1.1495817 L -4.7605966 1.1328902 L -4.7734124 1.1165088 L -4.7867966 1.1004374 L -4.8006459 1.0846761 L -4.8150636 1.0692249 L -4.8299464 1.0541353 L -4.8453977 1.0393559 L -4.861314 1.0249382 L -4.8776954 1.0109338 L -4.8945936 0.99723959 L -4.9119569 0.98395875 L -4.9297336 0.97103964 L -4.9480271 0.95853395 L -4.9667339 0.94644166 L -4.9859059 0.93476279 L -5.0055429 0.92349733 L -5.0255417 0.91264528 L -5.0460056 0.90225831 L -5.0880185 0.88282797 L -5.1315301 0.86520631 L -5.1764369 0.84949667 L -5.2226356 0.83569907 L -5.2700229 0.82391684 L -5.3184437 0.81415 L -5.3678464 0.80645021 L -5.4180759 0.80081748 L -5.4690288 0.79730348 L -5.5204986 0.79585654 L -5.5724851 0.79658001 L -5.6247816 0.79942221 L -5.6772332 0.80443483 L -5.7297881 0.81156617 L -5.7822914 0.82076458 L -5.8345362 0.83208172 L -5.8865227 0.84541424 L -5.9379925 0.86081381 L -5.9889454 0.87822877 L -6.0391232 0.89760743 L -6.0885259 0.91884645 L -6.1369467 0.94194581 L -6.1842823 0.96680218 L -6.2304811 0.99341554 L -6.2753362 1.0216825 L -6.3187961 1.0515515 L -6.3607057 1.0829191 L -6.4010133 1.1157337 L -6.4396156 1.1498401 L -6.4764092 1.1852385 L -6.5112908 1.2217737 L -6.5442087 1.2593941 L -6.5751112 1.2979964 L -6.6038433 1.3374255 L -6.6304567 1.3776298 L -6.6547963 1.4185059 L -6.6769138 1.4599504 L -6.6966542 1.50186 L -6.7056459 1.5229439 L -6.7140174 1.5440796 L -6.7218206 1.5653186 L -6.7290036 1.5865576 L -6.7356182 1.6078483 L -6.7416127 1.6291907 L -6.746987 1.6505331 L -6.7517929 1.6718754 L -6.7559787 1.6932178 L -6.7595444 1.7145085 L -6.7624899 1.7357475 L -6.7648671 1.7569348 L -6.7665724 1.7781222 L -6.7677093 1.7992061 L -6.768226 1.8201868 L -6.7681227 1.8410641 L -6.7674509 1.861838 L -6.766159 1.8825086 L -6.7642469 1.9030758 L -6.7617665 1.923488 L -6.7586659 1.9437968 L -6.7549969 1.9638989 L -6.7507077 1.983846 L -6.7458501 2.0036381 L -6.7404241 2.0232235 L -6.734378 2.0426538 L -6.7265748 2.0614124 L -6.7181516 2.0799642 L -6.7091599 2.0982577 L -6.6996514 2.1162927 L -6.6895745 2.1340694 L -6.6789291 2.1515877 L -6.6677154 2.1688477 L -6.6559848 2.1858492 L -6.6436858 2.2025407 L -6.6308701 2.2189221 L -6.6175375 2.2349935 L -6.6036883 2.2507548 L -6.5892705 2.2662061 L -6.5743361 2.2812956 L -6.5589365 2.296075 L -6.5430201 2.3104411 L -6.5266387 2.3244971 L -6.5097405 2.3381913 L -6.4923772 2.3514722 L -6.4745489 2.3643913 L -6.4563071 2.376897 L -6.4375485 2.3889893 L -6.4183766 2.4006681 L -6.3987912 2.4119336 L -6.3787924 2.422734 L -6.3583286 2.4331726 L -6.3163156 2.452603 L -6.2727524 2.4701729 L -6.2278456 2.4859343 L -6.1816985 2.4997319 L -6.1343112 2.5115141 L -6.0858387 2.5212809 L -6.0364361 2.5289807 L -5.9862583 2.5346135 L -5.9353053 2.5381275 L -5.8837839 2.5395227 z M -2.1989959 1.699574 L -2.181736 1.6984888 L -2.1636492 1.6952332 L -2.1446323 1.6898588 L -2.1248919 1.6822624 L -2.1043763 1.6725472 L -2.0831373 1.660765 L -2.0611748 1.6468123 L -2.0386439 1.6308443 L -2.0154929 1.6128609 L -1.9918251 1.5928105 L -1.9676922 1.570848 L -1.9430942 1.5470252 L -1.9181345 1.5212903 L -1.892813 1.4937468 L -1.8671815 1.4644462 L -1.8413433 1.4334404 L -1.81535 1.4008325 L -1.7892018 1.3666744 L -1.7629501 1.3310177 L -1.7366985 1.293914 L -1.7104986 1.2555184 L -1.684402 1.2157792 L -1.6584087 1.1749032 L -1.6326222 1.1329419 L -1.607094 1.0899471 L -1.5818243 1.0460221 L -1.5569679 1.0012704 L -1.5324733 0.9557951 L -1.508392 0.90959637 L -1.4848793 0.86288087 L -1.4618833 0.81575196 L -1.4394557 0.76815797 L -1.4176999 0.72035727 L -1.3966676 0.67240154 L -1.3763071 0.62434246 L -1.3567217 0.57628338 L -1.3379632 0.52837932 L -1.3200314 0.48068198 L -1.3030299 0.43329469 L -1.2869069 0.38637249 L -1.271714 0.33991538 L -1.2575546 0.29407838 L -1.2443771 0.24891318 L -1.2322849 0.2045748 L -1.2212261 0.16106324 L -1.2112526 0.11858522 L -1.2023642 0.077140718 L -1.1946127 0.036833101 L -1.1879982 -0.0022342823 L -1.1825721 -0.040009754 L -1.178283 -0.076389963 L -1.1751824 -0.11132323 L -1.1732187 -0.14475788 L -1.1724952 -0.17659056 L -1.1729603 -0.20671792 L -1.1745623 -0.23513996 L -1.1773528 -0.261805 L -1.1813836 -0.28660969 L -1.1864995 -0.30955403 L -1.1928041 -0.33053466 L -1.2002972 -0.34955158 L -1.2088754 -0.36655313 L -1.2185389 -0.3815393 L -1.2293393 -0.39440673 L -1.2412249 -0.4052071 L -1.2540923 -0.41383707 L -1.268045 -0.4203483 L -1.2829278 -0.42468912 L -1.2988441 -0.42685953 L -1.3156389 -0.42685953 L -1.3333123 -0.42468912 L -1.3518641 -0.42039997 L -1.3712428 -0.41388874 L -1.3913966 -0.40525878 L -1.4122739 -0.3944584 L -1.4338746 -0.38159097 L -1.4560955 -0.36665648 L -1.4789882 -0.34965494 L -1.5023976 -0.33063801 L -1.5262721 -0.30965738 L -1.5506634 -0.28671304 L -1.575468 -0.26190835 L -1.6006345 -0.23529499 L -1.626111 -0.20687295 L -1.6518458 -0.17674559 L -1.6777874 -0.14491291 L -1.7038323 -0.11152994 L -1.7300323 -0.076596668 L -1.7562839 -0.04021646 L -1.7825355 -0.002440988 L -1.8086838 0.036626395 L -1.8347287 0.076934012 L -1.8606186 0.11837851 L -1.8863018 0.16085654 L -1.9116749 0.20431642 L -1.9367897 0.24870647 L -1.961491 0.29382 L -1.9857272 0.33965699 L -2.0095501 0.38611411 L -2.0328045 0.43308798 L -2.0554904 0.4804236 L -2.0776079 0.52812094 L -2.099002 0.576025 L -2.1197242 0.62408408 L -2.139723 0.67214316 L -2.158895 0.72015056 L -2.1772401 0.76795126 L -2.1947067 0.81549358 L -2.2112949 0.86267416 L -2.2269012 0.90938966 L -2.2415773 0.95553671 L -2.2552715 1.0010637 L -2.2679322 1.0458154 L -2.2795078 1.0897404 L -2.2900498 1.1327352 L -2.2994549 1.1746965 L -2.3077748 1.2156242 L -2.3149578 1.2553117 L -2.3209523 1.293759 L -2.3258615 1.330811 L -2.3295305 1.3665194 L -2.3320627 1.4006775 L -2.3334063 1.4332853 L -2.3335613 1.4642912 L -2.3325278 1.4935917 L -2.3303057 1.5211353 L -2.3268951 1.5468701 L -2.3223475 1.5707446 L -2.3166114 1.5927071 L -2.3096868 1.6127576 L -2.301677 1.630741 L -2.2925302 1.6467607 L -2.2822983 1.6606616 L -2.2709812 1.6724955 L -2.2585788 1.6822107 L -2.2451946 1.6898071 L -2.2307252 1.6952332 L -2.2153256 1.6984888 L -2.1989959 1.699574 z M -12.003875 1.2653369 L -11.987856 1.2645618 L -11.972611 1.2615645 L -11.958193 1.2562935 L -11.944551 1.2488521 L -11.931787 1.239137 L -11.919901 1.2272514 L -11.908946 1.2132471 L -11.898869 1.1970207 L -11.889774 1.1787272 L -11.881661 1.1583667 L -11.874478 1.1359908 L -11.868328 1.1116512 L -11.863161 1.0853479 L -11.859026 1.0571843 L -11.855926 1.0271602 L -11.853859 0.99543092 L -11.852825 0.96194459 L -11.852825 0.92690797 L -11.853859 0.89026938 L -11.855977 0.85218385 L -11.859078 0.81265138 L -11.863212 0.771827 L -11.86838 0.72976238 L -11.874581 0.68656088 L -11.881764 0.64227418 L -11.889929 0.59700563 L -11.899024 0.55085857 L -11.909101 0.50393637 L -11.920108 0.45634238 L -11.931994 0.40812827 L -11.944758 0.35944907 L -11.9584 0.31035646 L -11.97287 0.26095379 L -11.988114 0.21139609 L -12.004134 0.16173504 L -12.020877 0.11207399 L -12.038292 0.062516287 L -12.05643 0.013165295 L -12.075137 -0.035823963 L -12.094464 -0.084451486 L -12.11436 -0.13256224 L -12.13472 -0.18005289 L -12.155546 -0.22682006 L -12.176785 -0.27281208 L -12.198437 -0.31792561 L -12.2204 -0.3620056 L -12.242672 -0.4050004 L -12.265203 -0.44685831 L -12.287889 -0.48747598 L -12.310782 -0.52669839 L -12.333726 -0.56457722 L -12.356722 -0.60090575 L -12.37977 -0.63568399 L -12.402766 -0.66886026 L -12.42571 -0.70027953 L -12.448499 -0.7299418 L -12.471082 -0.7577954 L -12.493458 -0.78373697 L -12.515575 -0.80776651 L -12.537383 -0.82978067 L -12.558829 -0.84977945 L -12.579913 -0.86765949 L -12.60048 -0.88347248 L -12.620634 -0.89711506 L -12.640219 -0.90858723 L -12.659236 -0.91788899 L -12.677633 -0.92496866 L -12.695409 -0.92977457 L -12.712514 -0.93241006 L -12.728896 -0.9327718 L -12.744502 -0.93085977 L -12.759333 -0.92672566 L -12.773389 -0.92036945 L -12.786567 -0.91179117 L -12.798917 -0.90099079 L -12.810338 -0.88802001 L -12.82088 -0.87293049 L -12.83044 -0.85567056 L -12.83907 -0.83634358 L -12.846718 -0.81500121 L -12.853384 -0.79159179 L -12.859069 -0.76627033 L -12.86372 -0.73903685 L -12.867337 -0.70994302 L -12.869921 -0.67904052 L -12.871471 -0.64643269 L -12.871988 -0.61217121 L -12.871471 -0.57630777 L -12.869869 -0.53894571 L -12.867285 -0.50008503 L -12.863668 -0.45993244 L -12.858965 -0.41848794 L -12.853281 -0.37580321 L -12.846615 -0.33203327 L -12.838967 -0.28728148 L -12.830337 -0.24159952 L -12.820725 -0.19503905 L -12.810183 -0.14775512 L -12.798711 -0.099851063 L -12.786412 -0.051378569 L -12.773182 -0.0024926645 L -12.759126 0.046754976 L -12.744295 0.096260998 L -12.728637 0.14592205 L -12.712256 0.1955831 L -12.695151 0.24519248 L -12.677374 0.29464682 L -12.658978 0.34384278 L -12.639909 0.39267701 L -12.620324 0.44104615 L -12.600221 0.48884685 L -12.579603 0.53602744 L -12.558519 0.5823812 L -12.537073 0.62795981 L -12.515265 0.67255657 L -12.493148 0.7161198 L -12.470772 0.75854615 L -12.448138 0.79978395 L -12.425348 0.83972983 L -12.402456 0.87828045 L -12.37946 0.91538413 L -12.356412 0.95098919 L -12.333364 0.9849406 L -12.31042 1.0172384 L -12.287579 1.0478308 L -12.264841 1.0765629 L -12.242362 1.1034863 L -12.22009 1.1284461 L -12.198127 1.1514937 L -12.176475 1.1724744 L -12.155236 1.1914396 L -12.13441 1.2082861 L -12.11405 1.2230139 L -12.094206 1.235623 L -12.074879 1.2459583 L -12.056172 1.2541748 L -12.038034 1.2601176 L -12.020619 1.2638383 L -12.003875 1.2653369 z M -10.27163 0.5282243 L -10.250752 0.52817262 L -10.229927 0.52744915 L -10.209256 0.52615724 L -10.188689 0.52424521 L -10.168277 0.52176474 L -10.14802 0.51866416 L -10.127918 0.51499513 L -10.107919 0.51075766 L -10.088127 0.5058484 L -10.068541 0.50042237 L -10.049163 0.49437623 L -10.030404 0.48657309 L -10.011852 0.47814983 L -9.9935589 0.46920981 L -9.9755238 0.45964967 L -9.9576954 0.44957277 L -9.9401771 0.43892742 L -9.9229172 0.42771363 L -9.9059673 0.41598308 L -9.8892758 0.40373577 L -9.8728944 0.39092001 L -9.856823 0.37753582 L -9.8410617 0.36368653 L -9.8256105 0.34926881 L -9.8105209 0.334386 L -9.7957415 0.31893474 L -9.7813238 0.3030184 L -9.7673194 0.28663697 L -9.7536252 0.26973878 L -9.7403444 0.2523755 L -9.7274252 0.23459881 L -9.7149195 0.21630535 L -9.7028273 0.19759848 L -9.6911484 0.17842653 L -9.6798829 0.15878948 L -9.6690309 0.1387907 L -9.6586439 0.11832683 L -9.6392136 0.076313895 L -9.6215919 0.032802339 L -9.6058823 -0.012104481 L -9.5920847 -0.058303211 L -9.5803024 -0.1056905 L -9.5705356 -0.15411132 L -9.5628358 -0.20351399 L -9.5572031 -0.25374348 L -9.5536891 -0.30469644 L -9.5522421 -0.35616617 L -9.5529656 -0.40815266 L -9.5558078 -0.46044921 L -9.5608204 -0.51290079 L -9.5679518 -0.56545572 L -9.5771502 -0.61795897 L -9.5884673 -0.67020385 L -9.6017998 -0.72219034 L -9.6171994 -0.77366006 L -9.6346144 -0.82461303 L -9.653993 -0.87479084 L -9.675232 -0.92419351 L -9.6983314 -0.97261433 L -9.7231878 -1.0199499 L -9.7498011 -1.0661487 L -9.7780681 -1.1110038 L -9.8079371 -1.1544637 L -9.8393047 -1.1963733 L -9.8721193 -1.2366809 L -9.9062257 -1.2752832 L -9.9416241 -1.3120768 L -9.9781593 -1.3469584 L -10.01578 -1.3798763 L -10.054382 -1.4107788 L -10.093811 -1.4395109 L -10.134015 -1.4661243 L -10.174891 -1.4904639 L -10.216336 -1.5125814 L -10.258246 -1.5323218 L -10.27933 -1.5413135 L -10.300465 -1.549685 L -10.321704 -1.5574882 L -10.342943 -1.5646712 L -10.364234 -1.5712858 L -10.385576 -1.5772803 L -10.406919 -1.5826546 L -10.428261 -1.5874605 L -10.449603 -1.5916463 L -10.470894 -1.595212 L -10.492133 -1.5981575 L -10.51332 -1.6005347 L -10.534508 -1.60224 L -10.555592 -1.6033769 L -10.576572 -1.6038936 L -10.59745 -1.6037903 L -10.618224 -1.6031185 L -10.638894 -1.6018266 L -10.659461 -1.5999145 L -10.679874 -1.5974341 L -10.700182 -1.5943335 L -10.720285 -1.5906645 L -10.740232 -1.5863753 L -10.760024 -1.5815177 L -10.779609 -1.5760917 L -10.799039 -1.5700456 L -10.817798 -1.5622424 L -10.83635 -1.5538192 L -10.854643 -1.5448275 L -10.872678 -1.535319 L -10.890455 -1.5252421 L -10.907973 -1.5145967 L -10.925233 -1.503383 L -10.942235 -1.4916524 L -10.958926 -1.4793534 L -10.975308 -1.4665377 L -10.991379 -1.4532051 L -11.00714 -1.4393559 L -11.022592 -1.4249381 L -11.037681 -1.4100037 L -11.052461 -1.3946041 L -11.066827 -1.3786877 L -11.080883 -1.3623063 L -11.094577 -1.3454081 L -11.107858 -1.3280448 L -11.120777 -1.3102165 L -11.133283 -1.2919747 L -11.145375 -1.2732161 L -11.157054 -1.2540442 L -11.168319 -1.2344588 L -11.17912 -1.21446 L -11.189558 -1.1939962 L -11.208989 -1.1519832 L -11.226559 -1.10842 L -11.24232 -1.0635132 L -11.256117 -1.0173661 L -11.2679 -0.96997883 L -11.277667 -0.92150634 L -11.285366 -0.87210367 L -11.290999 -0.82192585 L -11.294513 -0.77097289 L -11.295908 -0.71945149 L -11.295237 -0.66751667 L -11.292343 -0.61522012 L -11.287382 -0.56276854 L -11.28025 -0.51021361 L -11.271 -0.45771036 L -11.259735 -0.40546548 L -11.246351 -0.35347899 L -11.230951 -0.30195759 L -11.213588 -0.2510563 L -11.194209 -0.20082681 L -11.17297 -0.15147582 L -11.149871 -0.103055 L -11.124963 -0.055667713 L -11.098401 -0.0095206592 L -11.070134 0.035334484 L -11.040265 0.078794364 L -11.008897 0.12070395 L -10.976083 0.16101157 L -10.941925 0.19961386 L -10.906578 0.23640748 L -10.870043 0.27134075 L -10.832422 0.30425864 L -10.79382 0.33510947 L -10.754339 0.36384156 L -10.714135 0.39045493 L -10.673259 0.41479453 L -10.631814 0.43691204 L -10.589957 0.45665244 L -10.568873 0.46564414 L -10.547685 0.47401572 L -10.526498 0.48181886 L -10.505207 0.48900188 L -10.483917 0.49561647 L -10.462574 0.50161093 L -10.441283 0.50698528 L -10.419941 0.51179119 L -10.398599 0.51597698 L -10.377308 0.51954265 L -10.356069 0.52248821 L -10.33483 0.52486533 L -10.313694 0.52657065 L -10.29261 0.52770753 L -10.27163 0.5282243 z M -7.0353415 -0.70002115 A 1.09855 1.09855 0 0 0 -5.8618214 -1.7960266 A 1.09855 1.09855 0 0 0 -8.0588966 -1.7960266 A 1.09855 1.09855 0 0 0 -7.0353415 -0.70002115 z M -3.3441456 -1.9881596 L -3.3232683 -1.9882629 L -3.3024944 -1.9889347 L -3.2818238 -1.9902266 L -3.2612566 -1.9921387 L -3.2408444 -1.9946191 L -3.2205356 -1.9977197 L -3.2004335 -2.0013887 L -3.1804864 -2.0056779 L -3.1606943 -2.0105355 L -3.1411089 -2.0159615 L -3.1216786 -2.0220076 L -3.10292 -2.0298108 L -3.0843682 -2.038234 L -3.0660747 -2.0472257 L -3.0480397 -2.0567342 L -3.030263 -2.0668111 L -3.0127447 -2.0774565 L -2.9954847 -2.0886702 L -2.9784832 -2.1004008 L -2.9617917 -2.1126998 L -2.9454103 -2.1255155 L -2.9293389 -2.1388481 L -2.9135776 -2.1526973 L -2.8981263 -2.1671151 L -2.8830368 -2.1820495 L -2.8682574 -2.1974491 L -2.8538913 -2.2133655 L -2.8398353 -2.2297469 L -2.8261411 -2.2466451 L -2.8128602 -2.2640084 L -2.7999411 -2.2818367 L -2.7874354 -2.3000785 L -2.7753431 -2.3188371 L -2.7636643 -2.338009 L -2.7523988 -2.3575944 L -2.7415984 -2.3775932 L -2.7311598 -2.398057 L -2.7117294 -2.44007 L -2.6941595 -2.4836332 L -2.6783981 -2.52854 L -2.6646005 -2.5746871 L -2.6528183 -2.6220744 L -2.6430515 -2.6705469 L -2.6353517 -2.7199495 L -2.6297189 -2.7701273 L -2.6262049 -2.8210803 L -2.6248097 -2.8726017 L -2.6254815 -2.9245365 L -2.6283754 -2.9768331 L -2.6333363 -3.0292847 L -2.6404676 -3.0818396 L -2.6497177 -3.1343428 L -2.6609832 -3.1865877 L -2.6743674 -3.2385742 L -2.689767 -3.2900956 L -2.7071302 -3.3409969 L -2.7265089 -3.3912264 L -2.7477479 -3.4405774 L -2.7708473 -3.4889982 L -2.7957553 -3.5363855 L -2.822317 -3.5825325 L -2.850584 -3.6273877 L -2.880453 -3.6708476 L -2.9118206 -3.7127572 L -2.9446351 -3.7530648 L -2.9787932 -3.7916671 L -3.0141399 -3.8284607 L -3.0506752 -3.863394 L -3.0882956 -3.8963118 L -3.1268979 -3.9271627 L -3.1663787 -3.9558948 L -3.206583 -3.9825081 L -3.247459 -4.0068477 L -3.2889035 -4.0289652 L -3.3307614 -4.0487056 L -3.3518454 -4.0576973 L -3.3730327 -4.0660689 L -3.3942201 -4.0738721 L -3.4155108 -4.0810551 L -3.4368015 -4.0876697 L -3.4581438 -4.0936641 L -3.4794345 -4.0990385 L -3.5007769 -4.1038444 L -3.5221193 -4.1080302 L -3.5434099 -4.1115959 L -3.564649 -4.1145414 L -3.585888 -4.1169185 L -3.6070236 -4.1186238 L -3.6281076 -4.1197607 L -3.6490882 -4.1202775 L -3.6699655 -4.1202258 L -3.6907911 -4.1195023 L -3.7114617 -4.1182104 L -3.7320289 -4.1162984 L -3.7524411 -4.1138179 L -3.7726983 -4.1107174 L -3.7928004 -4.1070483 L -3.8127992 -4.1028109 L -3.8325913 -4.0979016 L -3.8521766 -4.0924756 L -3.8715553 -4.0864294 L -3.8903138 -4.0786263 L -3.9088657 -4.070203 L -3.9271591 -4.061263 L -3.9451942 -4.0517029 L -3.9630226 -4.041626 L -3.9805409 -4.0309806 L -3.9978008 -4.0197668 L -4.0147507 -4.0080363 L -4.0314422 -3.995789 L -4.0478236 -3.9829732 L -4.063895 -3.969589 L -4.0796563 -3.9557397 L -4.0951075 -3.941322 L -4.1101971 -3.9264392 L -4.1249765 -3.9109879 L -4.1393942 -3.8950716 L -4.1533986 -3.8786902 L -4.1670928 -3.861792 L -4.1803736 -3.8444287 L -4.1932928 -3.826652 L -4.2057985 -3.8083585 L -4.2178907 -3.7896517 L -4.2295696 -3.7704797 L -4.2408351 -3.7508427 L -4.2516871 -3.7308439 L -4.2620741 -3.71038 L -4.2815044 -3.6683671 L -4.2991261 -3.6248555 L -4.3148357 -3.5799487 L -4.3286333 -3.53375 L -4.3404156 -3.4863627 L -4.3501824 -3.4379419 L -4.3578822 -3.3885392 L -4.3635149 -3.3383097 L -4.3670289 -3.2873568 L -4.3684759 -3.235887 L -4.3677524 -3.1839005 L -4.3649102 -3.131604 L -4.3598976 -3.0791524 L -4.3527662 -3.0265975 L -4.3435678 -2.9740942 L -4.3322507 -2.9218494 L -4.3189182 -2.8698629 L -4.3035186 -2.8183931 L -4.2861036 -2.7674402 L -4.266725 -2.7172624 L -4.245486 -2.6678597 L -4.2223866 -2.6194389 L -4.1975302 -2.5721033 L -4.1709169 -2.5259045 L -4.1426499 -2.4810494 L -4.1127809 -2.4375895 L -4.0814133 -2.3956799 L -4.0485987 -2.3553723 L -4.0144923 -2.31677 L -3.9790939 -2.2799764 L -3.9425587 -2.2450948 L -3.9049383 -2.2121769 L -3.866336 -2.1812744 L -3.8269069 -2.1525423 L -3.7867026 -2.1259289 L -3.7458265 -2.1015893 L -3.704382 -2.0794718 L -3.6624724 -2.0597314 L -3.6413885 -2.0507397 L -3.6202528 -2.0423682 L -3.5990138 -2.034565 L -3.5777748 -2.027382 L -3.5564841 -2.0207674 L -3.5351417 -2.0147729 L -3.5137993 -2.0093986 L -3.492457 -2.0045927 L -3.4711146 -2.0004069 L -3.4498239 -1.9968412 L -3.4285849 -1.9938957 L -3.4073976 -1.9915185 L -3.3862102 -1.9898132 L -3.3651263 -1.9886763 L -3.3441456 -1.9881596 z M -1.1918222 -2.6592814 L -1.1762159 -2.6611934 L -1.1613848 -2.6653275 L -1.1473288 -2.6716837 L -1.1341513 -2.680262 L -1.1218007 -2.6910624 L -1.1103802 -2.7040332 L -1.0998382 -2.7191227 L -1.090278 -2.7363826 L -1.0816481 -2.7557096 L -1.074 -2.777052 L -1.0673337 -2.8004614 L -1.0616493 -2.8257829 L -1.0569984 -2.8530163 L -1.0533811 -2.8821102 L -1.0507972 -2.9130127 L -1.0492469 -2.9456205 L -1.0487302 -2.979882 L -1.0492469 -3.0157454 L -1.0508489 -3.0531075 L -1.0534327 -3.0919682 L -1.0570501 -3.1321208 L -1.0617526 -3.1735653 L -1.067437 -3.21625 L -1.0741033 -3.2600199 L -1.0817514 -3.3047717 L -1.0903814 -3.3504537 L -1.0999932 -3.3970141 L -1.1105352 -3.4442981 L -1.1220074 -3.4922021 L -1.1343063 -3.5406746 L -1.1475355 -3.5895605 L -1.1615915 -3.6388082 L -1.1764226 -3.6883142 L -1.1920806 -3.7379752 L -1.208462 -3.7876363 L -1.2255669 -3.8372457 L -1.2433436 -3.8867 L -1.2617404 -3.935896 L -1.280809 -3.9847302 L -1.3003944 -4.0330994 L -1.3204965 -4.0809001 L -1.3411154 -4.1280806 L -1.3621994 -4.1744344 L -1.3836451 -4.220013 L -1.4054526 -4.2646098 L -1.4275701 -4.308173 L -1.449946 -4.3505994 L -1.4725803 -4.3918371 L -1.4953696 -4.431783 L -1.5182622 -4.4703336 L -1.5412583 -4.5074373 L -1.5643059 -4.5430424 L -1.5873536 -4.5769938 L -1.610298 -4.6092916 L -1.6331389 -4.639884 L -1.6558766 -4.6686161 L -1.6783558 -4.6955395 L -1.7006284 -4.7204993 L -1.7225909 -4.7435469 L -1.7442433 -4.7645276 L -1.7654823 -4.7834928 L -1.7863079 -4.8003393 L -1.8066684 -4.8150671 L -1.8265122 -4.8276762 L -1.8458391 -4.8380115 L -1.864546 -4.846228 L -1.8826844 -4.8521708 L -1.9000994 -4.8558915 L -1.9168426 -4.8573901 L -1.9328623 -4.856615 L -1.9481068 -4.8536177 L -1.9625245 -4.8483467 L -1.9761671 -4.8409053 L -1.9889312 -4.8311902 L -2.0008168 -4.8193046 L -2.0117722 -4.8053003 L -2.0218491 -4.7890739 L -2.0309441 -4.7707804 L -2.0390573 -4.7504199 L -2.0462403 -4.728044 L -2.0523898 -4.7037044 L -2.0575575 -4.6774011 L -2.0616916 -4.6492375 L -2.0647922 -4.6192134 L -2.0668592 -4.5874841 L -2.0678928 -4.5539978 L -2.0678928 -4.5189612 L -2.0668592 -4.4823226 L -2.0647405 -4.444237 L -2.0616399 -4.4047046 L -2.0575058 -4.3638802 L -2.0523382 -4.3218156 L -2.046137 -4.2786141 L -2.038954 -4.2343274 L -2.0307891 -4.1890588 L -2.021694 -4.1429118 L -2.0116171 -4.0959896 L -2.0006101 -4.0483956 L -1.9887245 -4.0001815 L -1.9759604 -3.9515023 L -1.9623178 -3.9024097 L -1.9478484 -3.853007 L -1.9326039 -3.8034493 L -1.9165842 -3.7537882 L -1.899841 -3.7041272 L -1.8824261 -3.6545695 L -1.8642876 -3.6052185 L -1.8455808 -3.5562292 L -1.8262538 -3.5076017 L -1.8063583 -3.459491 L -1.7859978 -3.4120003 L -1.7651722 -3.3652331 L -1.7439332 -3.3192411 L -1.7222808 -3.2741276 L -1.7003183 -3.2300476 L -1.6780458 -3.1870528 L -1.6555148 -3.1451949 L -1.6328289 -3.1045772 L -1.6099362 -3.0653548 L -1.5869919 -3.027476 L -1.5639959 -2.9911474 L -1.5409482 -2.9563692 L -1.5179522 -2.9231929 L -1.4950078 -2.8917737 L -1.4722185 -2.8621114 L -1.4496359 -2.8342578 L -1.42726 -2.8083162 L -1.4051425 -2.7842867 L -1.3833351 -2.7622725 L -1.3618894 -2.7422738 L -1.3408054 -2.7243937 L -1.3202382 -2.7085807 L -1.3000843 -2.6949381 L -1.280499 -2.683466 L -1.261482 -2.6741642 L -1.2430852 -2.6670845 L -1.2253085 -2.6622786 L -1.2082036 -2.6596431 L -1.1918222 -2.6592814 z M -12.621874 -3.1651937 L -12.605079 -3.1651937 L -12.587406 -3.1673641 L -12.568854 -3.1716532 L -12.549475 -3.1781645 L -12.529321 -3.1867944 L -12.508444 -3.1975948 L -12.486843 -3.2104622 L -12.464623 -3.2253967 L -12.44173 -3.2423983 L -12.41832 -3.2614152 L -12.394446 -3.2823958 L -12.370055 -3.3053402 L -12.34525 -3.3301448 L -12.320084 -3.3567582 L -12.294607 -3.3851802 L -12.268872 -3.4153076 L -12.242931 -3.4471403 L -12.216886 -3.4805233 L -12.190686 -3.5154565 L -12.164434 -3.5518367 L -12.138182 -3.5896122 L -12.112034 -3.6286796 L -12.085989 -3.6689872 L -12.060099 -3.7104317 L -12.034416 -3.7529097 L -12.009043 -3.7963696 L -11.983928 -3.8407597 L -11.959227 -3.8858732 L -11.934991 -3.9317102 L -11.911168 -3.9781673 L -11.887914 -4.0251412 L -11.865228 -4.0724768 L -11.84311 -4.1201741 L -11.821716 -4.1680782 L -11.800994 -4.2161373 L -11.780995 -4.2641964 L -11.761823 -4.3122038 L -11.743478 -4.3600045 L -11.726011 -4.4075468 L -11.709423 -4.4547274 L -11.693817 -4.5014429 L -11.679141 -4.5475899 L -11.665446 -4.5931169 L -11.652786 -4.6378686 L -11.64121 -4.6817936 L -11.630668 -4.7247884 L -11.621263 -4.7667497 L -11.612943 -4.8076774 L -11.60576 -4.8473649 L -11.599766 -4.8858122 L -11.594856 -4.9228642 L -11.591187 -4.9585726 L -11.588655 -4.9927307 L -11.587312 -5.0253385 L -11.587157 -5.0563444 L -11.58819 -5.0856449 L -11.590412 -5.1131885 L -11.593823 -5.1389233 L -11.59837 -5.1627978 L -11.604107 -5.1847603 L -11.611031 -5.2048108 L -11.619041 -5.2227942 L -11.628188 -5.2388139 L -11.63842 -5.2527148 L -11.649737 -5.2645487 L -11.662139 -5.2742639 L -11.675523 -5.2818603 L -11.689993 -5.2872864 L -11.705392 -5.290542 L -11.721722 -5.2916272 L -11.738982 -5.290542 L -11.757069 -5.2872864 L -11.776086 -5.281912 L -11.795826 -5.2743156 L -11.816342 -5.2646004 L -11.837581 -5.2528182 L -11.859543 -5.2388655 L -11.882074 -5.2228975 L -11.905225 -5.2049141 L -11.928893 -5.1848637 L -11.953026 -5.1629012 L -11.977624 -5.1390784 L -12.002584 -5.1133435 L -12.027905 -5.0858 L -12.053536 -5.0564994 L -12.079375 -5.0254936 L -12.105368 -4.9928857 L -12.131516 -4.9587276 L -12.157768 -4.9230709 L -12.184019 -4.8859672 L -12.210219 -4.8475716 L -12.236316 -4.8078324 L -12.262309 -4.7669564 L -12.288096 -4.7249951 L -12.313624 -4.6820003 L -12.338894 -4.6380753 L -12.36375 -4.5933236 L -12.388245 -4.5478483 L -12.412326 -4.5016496 L -12.435839 -4.4549341 L -12.458835 -4.4078052 L -12.481262 -4.3602112 L -12.503018 -4.3124105 L -12.52405 -4.2644547 L -12.544411 -4.2163957 L -12.563996 -4.1683366 L -12.582755 -4.1204325 L -12.600687 -4.0727352 L -12.617688 -4.0253479 L -12.633811 -3.9784257 L -12.649004 -3.9319686 L -12.663163 -3.8861316 L -12.676341 -3.8409664 L -12.688433 -3.796628 L -12.699492 -3.7531164 L -12.709465 -3.7106384 L -12.718354 -3.6691939 L -12.726105 -3.6288863 L -12.73272 -3.5898189 L -12.738146 -3.5520434 L -12.742435 -3.5156632 L -12.745536 -3.48073 L -12.747499 -3.4472953 L -12.748223 -3.4154626 L -12.747758 -3.3853353 L -12.746156 -3.3569132 L -12.743365 -3.3302482 L -12.739334 -3.3054435 L -12.734218 -3.2824992 L -12.727914 -3.2615185 L -12.720421 -3.2425016 L -12.711843 -3.2255001 L -12.702179 -3.2105139 L -12.691379 -3.1976465 L -12.679493 -3.1868461 L -12.666626 -3.1782161 L -12.652673 -3.1717049 L -12.63779 -3.1673641 L -12.621874 -3.1651937 z M -8.4002194 -4.3879097 L -8.3482329 -4.3886332 L -8.2959364 -4.3914754 L -8.2434848 -4.396488 L -8.1909299 -4.4036194 L -8.1384266 -4.4128178 L -8.0861818 -4.4241349 L -8.0341953 -4.4374674 L -7.9827255 -4.452867 L -7.9317726 -4.470282 L -7.8815948 -4.4896606 L -7.8321921 -4.5108996 L -7.7837713 -4.533999 L -7.7364357 -4.5588554 L -7.6902369 -4.5854687 L -7.6453818 -4.6137357 L -7.6019219 -4.6436047 L -7.5600123 -4.6749723 L -7.5197047 -4.7077869 L -7.4811024 -4.7418933 L -7.4443088 -4.7772917 L -7.4094272 -4.8138269 L -7.3765093 -4.8514473 L -7.3456068 -4.8900496 L -7.3168747 -4.9294787 L -7.2902613 -4.969683 L -7.2659217 -5.0105591 L -7.2438042 -5.0520036 L -7.2240638 -5.0939132 L -7.2150721 -5.1149971 L -7.2067006 -5.1361328 L -7.1988974 -5.1573718 L -7.1917144 -5.1786108 L -7.1850998 -5.1999015 L -7.1791053 -5.2212439 L -7.173731 -5.2425863 L -7.1689251 -5.2639286 L -7.1647393 -5.285271 L -7.1611736 -5.3065617 L -7.1582281 -5.3278007 L -7.1558509 -5.348988 L -7.1541456 -5.3701754 L -7.1530087 -5.3912593 L -7.152492 -5.41224 L -7.1525953 -5.4331173 L -7.1532671 -5.4538912 L -7.154559 -5.4745618 L -7.1564711 -5.495129 L -7.1589515 -5.5155412 L -7.1620521 -5.53585 L -7.1657211 -5.5559521 L -7.1700103 -5.5758992 L -7.1748679 -5.5956913 L -7.1802939 -5.6152767 L -7.18634 -5.634707 L -7.1941432 -5.6534656 L -7.2025664 -5.6720174 L -7.2115581 -5.6903109 L -7.2210666 -5.7083459 L -7.2311435 -5.7261226 L -7.2417889 -5.7436409 L -7.2530026 -5.7609009 L -7.2647332 -5.7779024 L -7.2770322 -5.7945939 L -7.2898479 -5.8109753 L -7.3031805 -5.8270467 L -7.3170297 -5.842808 L -7.3314475 -5.8582593 L -7.3463819 -5.8733488 L -7.3617815 -5.8881282 L -7.3776979 -5.9024943 L -7.3940793 -5.9165503 L -7.4109775 -5.9302445 L -7.4283408 -5.9435254 L -7.4461691 -5.9564445 L -7.4644109 -5.9689502 L -7.4831695 -5.9810425 L -7.5023414 -5.9927213 L -7.5219268 -6.0039868 L -7.5419256 -6.0147872 L -7.5623894 -6.0252258 L -7.6044024 -6.0446562 L -7.6479656 -6.0622261 L -7.6928724 -6.0779875 L -7.7390195 -6.0917851 L -7.7864068 -6.1035673 L -7.8348793 -6.1133341 L -7.8842819 -6.1210339 L -7.9344597 -6.1266667 L -7.9854127 -6.1301807 L -8.0369341 -6.1315759 L -8.0888689 -6.1309041 L -8.1411655 -6.1280102 L -8.1936171 -6.1230493 L -8.246172 -6.115918 L -8.2986752 -6.1066679 L -8.3509201 -6.0954024 L -8.4029066 -6.0820182 L -8.454428 -6.0666186 L -8.5053293 -6.0492554 L -8.5555588 -6.0298767 L -8.6049098 -6.0086377 L -8.6533306 -5.9855383 L -8.7007179 -5.9606303 L -8.7468649 -5.9340686 L -8.7917201 -5.9058016 L -8.83518 -5.8759326 L -8.8770896 -5.844565 L -8.9173972 -5.8117505 L -8.9559995 -5.7775924 L -8.9927931 -5.7422457 L -9.0277264 -5.7057104 L -9.0606442 -5.66809 L -9.0914951 -5.6294877 L -9.1202272 -5.5900069 L -9.1468405 -5.5498026 L -9.1711801 -5.5089266 L -9.1932976 -5.4674821 L -9.213038 -5.4256242 L -9.2220297 -5.4045402 L -9.2304013 -5.3833529 L -9.2382045 -5.3621655 L -9.2453875 -5.3408748 L -9.2520021 -5.3195841 L -9.2579965 -5.2982418 L -9.2633709 -5.2769511 L -9.2681768 -5.2556087 L -9.2723626 -5.2342663 L -9.2759283 -5.2129757 L -9.2788738 -5.1917366 L -9.2812509 -5.1704976 L -9.2829562 -5.149362 L -9.2840931 -5.128278 L -9.2846099 -5.1072974 L -9.2845582 -5.0864201 L -9.2838347 -5.0655945 L -9.2825428 -5.0449239 L -9.2806308 -5.0243567 L -9.2781503 -5.0039445 L -9.2750498 -4.9836873 L -9.2713807 -4.9635852 L -9.2671433 -4.9435864 L -9.262234 -4.9237943 L -9.256808 -4.904209 L -9.2507618 -4.8848303 L -9.2429587 -4.8660718 L -9.2345354 -4.8475199 L -9.2255954 -4.8292265 L -9.2160353 -4.8111914 L -9.2059584 -4.793363 L -9.195313 -4.7758447 L -9.1840992 -4.7585848 L -9.1723687 -4.7416349 L -9.1601214 -4.7249434 L -9.1473056 -4.708562 L -9.1339214 -4.6924906 L -9.1200721 -4.6767293 L -9.1056544 -4.6612781 L -9.0907716 -4.6461885 L -9.0753203 -4.6314091 L -9.059404 -4.6169914 L -9.0430226 -4.602987 L -9.0261244 -4.5892928 L -9.0087611 -4.576012 L -8.9909844 -4.5630928 L -8.9726909 -4.5505871 L -8.9539841 -4.5384949 L -8.9348121 -4.526816 L -8.9151751 -4.5155505 L -8.8951763 -4.5046985 L -8.8747124 -4.4943115 L -8.8326995 -4.4748812 L -8.7891879 -4.4572595 L -8.7442811 -4.4415499 L -8.6980824 -4.4277523 L -8.6506951 -4.41597 L -8.6022743 -4.4062032 L -8.5528716 -4.3985034 L -8.5026421 -4.3928707 L -8.4516892 -4.3893567 L -8.4002194 -4.3879097 z M -3.7000412 -6.4228243 L -3.6707407 -6.4238578 L -3.6431971 -6.4260799 L -3.6174623 -6.4294905 L -3.5935878 -6.4340381 L -3.5716253 -6.4397742 L -3.5515748 -6.4466988 L -3.5335914 -6.4547086 L -3.5175717 -6.4638554 L -3.5036708 -6.4740873 L -3.4918369 -6.4854044 L -3.4821217 -6.4978068 L -3.4745253 -6.511191 L -3.4690992 -6.5256604 L -3.4658436 -6.54106 L -3.4647584 -6.5573897 L -3.4658436 -6.5746496 L -3.4690992 -6.5927364 L -3.4744736 -6.6117533 L -3.48207 -6.6314937 L -3.4917852 -6.6520093 L -3.5035674 -6.6732483 L -3.5175201 -6.6952108 L -3.5334881 -6.7177417 L -3.5514715 -6.7408927 L -3.5715219 -6.7645605 L -3.5934844 -6.7886934 L -3.6173072 -6.8132914 L -3.6430421 -6.8382511 L -3.6705856 -6.8635726 L -3.6998862 -6.8892041 L -3.730892 -6.9150423 L -3.7634999 -6.9410356 L -3.797658 -6.9671838 L -3.8333147 -6.9934355 L -3.8704184 -7.0196871 L -3.908814 -7.045887 L -3.9485532 -7.0719836 L -3.9894292 -7.0979769 L -4.0313905 -7.1237634 L -4.0743853 -7.1492916 L -4.1183103 -7.1745613 L -4.163062 -7.1994177 L -4.2085373 -7.2239123 L -4.254736 -7.2479936 L -4.3014515 -7.2715063 L -4.3485804 -7.2945023 L -4.3961744 -7.3169299 L -4.4439751 -7.3386857 L -4.4919309 -7.359718 L -4.5399899 -7.3800785 L -4.588049 -7.3996639 L -4.6359531 -7.4184224 L -4.6836504 -7.4363542 L -4.7310377 -7.4533557 L -4.7779599 -7.4694787 L -4.824417 -7.4846716 L -4.870254 -7.498831 L -4.9154192 -7.5120085 L -4.9597576 -7.5241007 L -5.0032692 -7.5351595 L -5.0457472 -7.545133 L -5.0871917 -7.5540214 L -5.1274993 -7.5617729 L -5.1665667 -7.5683874 L -5.2043422 -7.5738135 L -5.2407224 -7.5781026 L -5.2756556 -7.5812032 L -5.3090903 -7.5831669 L -5.340923 -7.5838904 L -5.3710503 -7.5834253 L -5.3994724 -7.5818233 L -5.4261374 -7.5790328 L -5.4509421 -7.575002 L -5.4738864 -7.5698861 L -5.4948671 -7.5635815 L -5.513884 -7.5560884 L -5.5308855 -7.5475102 L -5.5458717 -7.5378467 L -5.5587391 -7.5270463 L -5.5695395 -7.5151607 L -5.5781695 -7.5022933 L -5.5846807 -7.4883406 L -5.5890215 -7.4734578 L -5.5911919 -7.4575415 L -5.5911919 -7.4407467 L -5.5890215 -7.4230733 L -5.5847324 -7.4045215 L -5.5782211 -7.3851428 L -5.5695912 -7.364989 L -5.5587908 -7.3441117 L -5.5459234 -7.322511 L -5.5309889 -7.3002901 L -5.5139873 -7.2773974 L -5.4949704 -7.253988 L -5.4739898 -7.2301135 L -5.4510454 -7.2057222 L -5.4262408 -7.1809176 L -5.3996274 -7.1557511 L -5.3712054 -7.1302746 L -5.341078 -7.1045398 L -5.3092453 -7.0785982 L -5.2758623 -7.0525533 L -5.2409291 -7.0263533 L -5.2045489 -7.0001017 L -5.1667734 -6.9738501 L -5.127706 -6.9477018 L -5.0873984 -6.9216569 L -5.0459539 -6.895767 L -5.0034759 -6.8700838 L -4.960016 -6.8447107 L -4.9156259 -6.8195959 L -4.8705124 -6.7948946 L -4.8246754 -6.7706584 L -4.7782183 -6.7468355 L -4.7312444 -6.7235811 L -4.6839088 -6.7008952 L -4.6362115 -6.6787777 L -4.5883074 -6.6573836 L -4.5402483 -6.6366614 L -4.4921892 -6.6166626 L -4.4441818 -6.5974906 L -4.3963811 -6.5791455 L -4.3488388 -6.5616789 L -4.3016582 -6.5450907 L -4.2549427 -6.5294844 L -4.2087957 -6.5148083 L -4.1632687 -6.5011141 L -4.118517 -6.4884534 L -4.074592 -6.4768778 L -4.0315972 -6.4663358 L -3.9896359 -6.4569307 L -3.9487082 -6.4486108 L -3.9090207 -6.4414278 L -3.8705734 -6.4354333 L -3.8335214 -6.4305241 L -3.797813 -6.4268551 L -3.7636549 -6.4243229 L -3.7310471 -6.4229793 L -3.7000412 -6.4228243 z M -9.7183302 -6.6884928 L -9.6832936 -6.6884928 L -9.646655 -6.6895264 L -9.6085694 -6.6916451 L -9.569037 -6.6947457 L -9.5282126 -6.6988798 L -9.486148 -6.7040474 L -9.4429465 -6.7102486 L -9.3986598 -6.7174316 L -9.3533912 -6.7255965 L -9.3072442 -6.7346916 L -9.260322 -6.7447685 L -9.212728 -6.7557755 L -9.1645139 -6.7676611 L -9.1158347 -6.7804252 L -9.0667421 -6.7940678 L -9.0173394 -6.8085372 L -8.9677817 -6.8237817 L -8.9181206 -6.8398014 L -8.8684596 -6.8565446 L -8.8189019 -6.8739595 L -8.7695509 -6.892098 L -8.7205616 -6.9108048 L -8.6719341 -6.9301318 L -8.6238234 -6.9500273 L -8.5763327 -6.9703878 L -8.5295655 -6.9912134 L -8.4835735 -7.0124524 L -8.43846 -7.0341048 L -8.39438 -7.0560673 L -8.3513852 -7.0783398 L -8.3095273 -7.1008708 L -8.2689096 -7.1235567 L -8.2296872 -7.1464494 L -8.1918084 -7.1693937 L -8.1554798 -7.1923897 L -8.1207016 -7.2154374 L -8.0875253 -7.2384334 L -8.0561061 -7.2613778 L -8.0264438 -7.2841671 L -7.9985902 -7.3067497 L -7.9726486 -7.3291256 L -7.9486191 -7.3512431 L -7.9266049 -7.3730505 L -7.9066062 -7.3944962 L -7.8887261 -7.4155802 L -7.8729131 -7.4361474 L -7.8592705 -7.4563013 L -7.8477984 -7.4758866 L -7.8384966 -7.4949036 L -7.8314169 -7.5133004 L -7.826611 -7.5310771 L -7.8239755 -7.548182 L -7.8236138 -7.5645634 L -7.8255258 -7.5801697 L -7.8296599 -7.5950008 L -7.8360161 -7.6090568 L -7.8445944 -7.6222343 L -7.8553948 -7.6345849 L -7.8683656 -7.6460054 L -7.8834551 -7.6565474 L -7.900715 -7.6661076 L -7.920042 -7.6747375 L -7.9413844 -7.6823856 L -7.9647938 -7.6890519 L -7.9901153 -7.6947363 L -8.0173487 -7.6993872 L -8.0464426 -7.7030045 L -8.0773451 -7.7055884 L -8.1099529 -7.7071387 L -8.1442144 -7.7076554 L -8.1800778 -7.7071387 L -8.2174399 -7.7055367 L -8.2563006 -7.7029529 L -8.2964532 -7.6993355 L -8.3378977 -7.694633 L -8.3805824 -7.6889486 L -8.4243523 -7.6822823 L -8.4691041 -7.6746342 L -8.5147861 -7.6660042 L -8.5613465 -7.6563924 L -8.6086305 -7.6458504 L -8.6565345 -7.6343782 L -8.705007 -7.6220793 L -8.7538929 -7.6088501 L -8.8031406 -7.5947941 L -8.8526466 -7.579963 L -8.9023076 -7.564305 L -8.9519687 -7.5479236 L -9.0015781 -7.5308187 L -9.0510324 -7.513042 L -9.1002284 -7.4946452 L -9.1490626 -7.4755766 L -9.1974318 -7.4559912 L -9.2452325 -7.4358891 L -9.292413 -7.4152702 L -9.3387668 -7.3941862 L -9.3843454 -7.3727405 L -9.4289422 -7.350933 L -9.4725054 -7.3288155 L -9.5149318 -7.3064396 L -9.5561695 -7.2838053 L -9.5961154 -7.261016 L -9.634666 -7.2381234 L -9.6717697 -7.2151273 L -9.7073748 -7.1920797 L -9.7413262 -7.169032 L -9.773624 -7.1460876 L -9.8042164 -7.1232467 L -9.8329485 -7.100509 L -9.8598719 -7.0780298 L -9.8848317 -7.0557572 L -9.9078793 -7.0337947 L -9.92886 -7.0121423 L -9.9478252 -6.9909033 L -9.9646717 -6.9700777 L -9.9793995 -6.9497172 L -9.9920086 -6.9298734 L -10.002344 -6.9105465 L -10.01056 -6.8918396 L -10.016503 -6.8737012 L -10.020224 -6.8562862 L -10.021723 -6.839543 L -10.020947 -6.8235233 L -10.01795 -6.8082788 L -10.012679 -6.7938611 L -10.005238 -6.7802185 L -9.9955226 -6.7674544 L -9.983637 -6.7555688 L -9.9696327 -6.7446134 L -9.9534063 -6.7345365 L -9.9351128 -6.7254415 L -9.9147523 -6.7173283 L -9.8923764 -6.7101453 L -9.8680368 -6.7039958 L -9.8417335 -6.6988281 L -9.8135699 -6.694694 L -9.7835458 -6.6915934 L -9.7518165 -6.6895264 L -9.7183302 -6.6884928 z "
     transform="matrix(1,0,0,-1,13.310359,4.5539734)" /></svg>
